<svg version="1.2" xmlns="http://www.w3.org/2000/svg" viewBox="0 0 3295 900" width="3295" height="900">
	<title>horizontal-azul</title>
	<style>
		.s0 { fill: #ffffff } 
		.s1 { fill: #ffd000 } 
	</style>
	<path class="s0" d="m1287.4 175.6c-88.4 0-144.5 50.3-149.7 114.6 0 4.6 5.6 11 11.8 11h38.1c6.1 0 9.2-5.7 10.3-11 4.1-41.6 35.4-71.3 89.9-71.3 60.7 0 94 30.1 94 74v62.1h-94.4c-93.6 0-156.4 42.7-156.4 102.5 0 67.3 59.7 114 155.4 114 95.7 0 153.4-53.1 153.4-120.5v-158.1c0-66.6-57.7-117.3-152.4-117.3zm94.4 275.4c0 44.7-33.3 75.7-95.1 75.7-61.7 0-98.4-24.7-98.4-69.3 0-37.1 38.3-61 99-61h94.5z"/>
	<path class="s0" d="m1643.5 413c94.7 0 157.4-52.5 157.4-115.3 0-66.6-67.3-119-161.9-119-94.7 0-162 47.6-162 117.2v153.6c0 71.1 67.3 118.8 162 118.8 94.6 0 155.5-41.5 158.6-112.6 0-4.5-1.8-1.4-8-1.4h-38.1c-6.1 0-10.3-3.9-10.3 1.4-2 46.2-42.9 74.1-100.5 74.1-61.7 0-101.6-34.9-101.6-80.3v-36.5h104.4zm-104.4-117.1c0-46.9 37.8-77.9 101.6-77.9 63.8 0 100.1 35.9 100.1 79.8 0 40.1-35.5 73.8-97.3 73.8h-104.4v-75.7z"/>
	<path class="s0" d="m2141.7 455.3h-38c-6.2 0-10.3-4-10.3 1.2-4.1 46.2-48.1 74.1-105.7 74.1-60.7 0-105.7-34.9-105.7-80.4v-155.8c0-45.4 44-77.2 103.6-77.2 56.6 0 95.6 31.8 99.7 73.4 0 5.3 8.1 11.4 14.3 11.4h38c6.2 0 10.3-6.8 10.3-11.4-5.1-64.3-68.4-113.1-157.9-113.1-89.4 0-157.8 48.8-157.8 116.9v155.8c0 68.2 66.3 118.8 159.9 118.8 93.6 0 153-43.6 158.2-112.5 0-4.5-2.4-1.2-8.6-1.2z"/>
	<path class="s1" d="m2225.4 534c0-19.9 15.1-35.1 34.7-35.1 19.6 0 34.7 15.2 34.7 35.1 0 19.8-15.9 35.1-34.7 35.1-18.9 0-34.7-16.1-34.7-35.1z"/>
	<path class="s1" d="m2393.5 553.8v-258.7c0-70.2 69.5-117.5 162.8-117.5h45.7c6.2 0 10.3 3.1 10.3 7.6v26.7c0 4.6-4.1 7.7-10.3 7.7h-45.7c-61.2 0-103.7 28.2-103.7 75.5v258.7c0 4.6-4.1 7.6-10.4 7.6h-38.4c-6.2 0-10.3-3-10.3-7.6z"/>
	<path class="s1" d="m2691.2 553.8v-366.3c0-4.5 4.1-7.6 10.4-7.6h38.3c6.3 0 10.4 3.1 10.4 7.6v366.3c0 4.6-4.1 7.6-10.4 7.6h-38.3c-6.3 0-10.4-3-10.4-7.6zm-4.4-456.5c0-19.9 15.1-35.1 34.7-35.1 19.6 0 34.7 15.2 34.7 35.1 0 19.8-15.8 35.1-34.7 35.1-18.8 0-34.7-16.1-34.7-35.1z"/>
	<path class="s1" d="m2739.9 565.6h-38.3c-8.6 0-14.5-4.9-14.5-11.8v-366.3c0-6.9 5.9-11.7 14.5-11.7h38.3c8.6 0 14.5 4.8 14.5 11.7v366.3c0 6.9-5.9 11.8-14.5 11.8zm-38.3-381.6c-2.9 0-6.3 1-6.3 3.5v366.3c0 2.6 3.4 3.5 6.3 3.5h38.3c2.9 0 6.3-0.9 6.3-3.5v-366.3c0-2.6-3.4-3.5-6.3-3.5zm20-47.5c-21.4 0-38.8-17.6-38.8-39.3 0-21.6 17-39.2 38.8-39.2 21.8 0 38.8 17.6 38.8 39.2 0 21.7-17.7 39.3-38.8 39.3zm0-70.2c-17.4 0-30.6 13.3-30.6 30.9 0 17.7 13.7 31 30.6 31 16.9 0 30.6-14.2 30.6-31 0-16.8-13.7-30.9-30.6-30.9z"/>
	<path class="s1" d="m2856.1 449.3v-157.2c0-68.7 63.3-119.8 159.8-119.8 96.4 0 159.7 51.1 159.7 119.8v157.1c0 68.7-63.3 119.8-159.7 119.8-96.5 0-159.8-51.1-159.8-119.8zm259.4 0v-157.1c0-46.6-37.4-78.6-99.6-78.6-62.3 0-99.6 32-99.6 78.6v157.1c0 46.6 37.3 78.6 99.6 78.6 62.2 0 99.6-32 99.6-78.6z"/>
	<path class="s1" d="m3015.9 573.2c-96.5 0-163.9-51-163.9-124v-157.1c0-73 67.4-124 163.9-124 96.5 0 163.9 51 163.9 124v157.1c0 73-67.4 124-163.9 124zm0-396.8c-91.6 0-155.6 47.6-155.6 115.6v157.2c0 68.1 64 115.7 155.6 115.7 91.6 0 155.6-47.6 155.6-115.7v-157.2c0-68-64-115.6-155.6-115.6zm0 355.6c-63 0-103.7-32.5-103.7-82.8v-157.1c0-50.3 40.7-82.8 103.7-82.8 63 0 103.7 32.5 103.7 82.8v157.1c0 50.3-40.7 82.8-103.7 82.8zm0-314.4c-58 0-95.5 29.2-95.5 74.4v157.2c0 45.3 37.5 74.5 95.5 74.5 57.9 0 95.4-29.2 95.4-74.5v-157.2c0-45.2-37.4-74.4-95.4-74.4z"/>
	<path class="s1" d="m213.5 616c10 33 40.7 57 77 57 36.3 0 67-24 77-57h41c10.3 34.7 42.4 60 80.5 60 38.1 0 70.2-25.3 80.5-60h41c10.3 34.7 42.4 60 80.5 60 38.1 0 70.2-25.3 80.5-60h39.5c-63.2 118.4-187.9 199-331.5 199-143.6 0-268.3-80.6-331.5-199zm319.7-237c10 35.2 42.4 61 80.8 61 38.4 0 70.8-25.8 80.8-61h155.3c3.2 19.7 4.9 39.9 4.9 60.5 0 45.9-8.2 89.8-23.3 130.5h-59.6c-9.7-35.7-42.3-62-81.1-62-38.8 0-71.4 26.3-81.1 62h-39.8c-9.7-35.7-42.3-62-81.1-62-38.8 0-71.4 26.3-81.1 62h-40.1c-9.7-33.5-40.7-58-77.3-58-36.7 0-67.6 24.5-77.3 58h-85.9c-15.1-40.7-23.3-84.6-23.3-130.5q0-8.1 0.3-16.1c4.5 1.1 9.8 1.7 15.8 1.7 34.1 0 63.6-18.8 78-46.1zm-53.7-315c170.4 0 314.2 113.5 360.1 269h-144.8c-10-35.2-42.4-61-80.8-61-38.5 0-70.8 25.8-80.8 61h-326.4c-3.5-32.9-26.9-60.2-58.6-70.5 63.3-118.2 187.9-198.5 331.3-198.5z"/>
	<path class="s0" d="m1144.3 711.9v101h-13.3v-101z"/>
	<path class="s0" d="m1190.6 710.8l62.7 71.1v-69.7h12.8v102.1h-1.8l-62.7-71.1v69.7h-12.8v-102.1z"/>
	<path class="s0" d="m1373.7 711.9v13.6h-28.1v87.1h-13.3v-87.1h-27.8v-13.6z"/>
	<path class="s0" d="m1473.4 711.9v13.6h-48.6v28.9h48v13h-48v31.6h48.6v13.6h-61.9v-101h61.9z"/>
	<path class="s0" d="m1529.5 711.9v87.1h43.1v13.6h-56.4v-101h13.3z"/>
	<path class="s0" d="m1624.1 711.9v101h-13.3v-101z"/>
	<path class="s0" d="m1751.7 756.2q0.4 1.7 0.8 4.3c0 1.7 0 3.5 0 5.5 0 7.2-1.1 13.9-3.2 20-2 5.7-4.9 10.9-8.6 15.3-3.8 4.3-8.1 7.5-13.3 9.8-5.2 2.3-10.7 3.5-17.1 3.5-6.4 0-12.4-1.2-17.9-3.8-5.5-2.6-10.4-6-14.2-10.7-4-4.6-7.2-10.1-9.3-16.4q-3.4-9.6-3.4-21.7c0-8.1 1.1-16.2 3.7-22.6 2.6-6.4 6.1-11.6 10.4-15.9 4.4-4.1 9.3-7.2 14.8-9.3 5.5-2 11.3-3.1 17.3-3.1 6.1 0 12.8 1.1 18.6 3.1 5.7 2.4 10.9 5.2 15.3 9l-6.7 11.9c-4-3.5-8.4-6.1-12.7-7.9q-6.9-2.5-13.9-2.5c-4.6 0-8.9 0.8-13 2.3-4 1.7-7.5 4-10.7 7.2-3.2 3.2-5.5 7.2-7.2 11.9-1.8 4.6-2.6 10.1-2.6 16.1 0 6.1 0.8 11 2.3 15.7 1.4 4.6 3.7 8.6 6.6 12.1 2.9 3.5 6.1 6.1 10.2 7.8 4 1.8 8.3 2.9 13 2.9 4.6 0 8.6-0.9 12.4-2.6 3.8-1.7 6.7-4 9.3-6.9 2.6-2.9 4.6-6.4 5.7-10.4 1.5-4.1 2.1-8.4 2.1-13.4h-26.9v-11.2h37.9z"/>
	<path class="s0" d="m1855.5 711.9v13.6h-48.6v28.9h48v13h-48v31.6h48.6v13.6h-61.9v-101h61.9zm-31-28.9l18.5 21.1h-9.2l-10.1-12.1-10.2 12.1h-9.2l18.8-21.1z"/>
	<path class="s0" d="m1899.7 710.8l62.8 71.1v-69.7h12.7v102.1h-1.7l-62.8-71.1v69.7h-12.7v-102.1z"/>
	<path class="s0" d="m2089.2 735.9c-3.8-3.4-7.8-6.1-12.2-8.4-4.3-2.3-9.2-3.1-14.7-3.1-5.5 0-9 0.8-12.7 2.6-4.1 1.7-7.3 4-10.2 7.2-2.9 3.2-5.2 7.2-6.6 11.9-1.8 4.6-2.3 10.1-2.3 16.2 0 6 0.8 11.5 2.6 16.1 1.7 4.7 4 8.7 6.9 11.9 2.9 3.2 6.4 5.8 10.1 7.5 3.8 1.8 8.1 2.6 12.5 2.6 4.3 0 5.5-0.3 8.1-0.8 2.6-0.6 4.9-1.8 7.5-2.9 2.3-1.5 4.3-2.9 6.4-4.9 1.7-2.1 3.4-4.4 4.6-7l9.8 8.4c-1.7 3.5-4 6.6-6.6 9.5-2.6 2.6-5.5 5-8.7 6.7-3.2 1.7-6.7 3.2-10.1 3.8-3.5 0.8-7.3 1.1-10.7 1.1-6.7 0-12.5-1.1-18-3.7-5.5-2.7-10.4-6.1-14.1-10.8q-6.1-6.9-9.6-16.4c-2.3-6.4-3.5-13.6-3.5-21.4 0-7.8 1.2-15.1 3.5-21.4 2.3-6.4 5.5-11.6 9.6-15.9 4-4.4 8.9-7.9 14.4-10.2q8.3-3.4 18.2-3.4c6.7 0 13.6 1.1 19.7 3.7 5.8 2.6 11 6.1 15.3 10.1l-8.1 11.3z"/>
	<path class="s0" d="m2151.6 711.9v101h-13.3v-101z"/>
	<path class="s0" d="m2232.6 710.8l42.5 102.1h-14.1l-10.4-26.1h-38.2l-10.4 26.1h-13.9l42.8-102.1zm-16.2 65.9h30.1l-15.1-37.6z"/>
	<path class="s0" d="m2442.6 735.9c-3.8-3.4-7.8-6.1-12.2-8.4-4.3-2.3-9.2-3.1-14.7-3.1-5.5 0-9 0.8-12.7 2.6-4.1 1.7-7.3 4-10.2 7.2-2.8 3.2-5.2 7.2-6.6 11.9-1.7 4.6-2.3 10.1-2.3 16.2 0 6 0.9 11.5 2.6 16.1 1.7 4.7 4 8.7 6.9 11.9 2.9 3.2 6.4 5.8 10.2 7.5 3.7 1.8 8.1 2.6 12.4 2.6 4.3 0 5.5-0.3 8.1-0.8 2.6-0.6 4.9-1.8 7.5-2.9 2.3-1.5 4.3-2.9 6.4-4.9 1.7-2.1 3.4-4.4 4.6-7l9.8 8.4c-1.7 3.5-4 6.6-6.6 9.5-2.6 2.6-5.5 5-8.7 6.7-3.2 1.7-6.7 3.2-10.1 3.8-3.5 0.8-7.2 1.1-10.7 1.1-6.7 0-12.5-1.1-18-3.7-5.5-2.7-10.4-6.1-14.1-10.8q-6.1-6.9-9.6-16.4c-2.3-6.4-3.4-13.6-3.4-21.4 0-7.8 1.1-15.1 3.4-21.4 2.3-6.4 5.5-11.6 9.6-15.9 4-4.4 8.9-7.9 14.4-10.2q8.3-3.4 18.3-3.4c6.6 0 13.5 1.1 19.6 3.7 5.8 2.6 11 6.1 15.3 10.1l-8 11.3z"/>
	<path class="s0" d="m2530.8 710.8c7.2 0 13.3 1.4 18.8 4.3 5.5 2.9 10.1 6.7 13.9 11.6 3.7 4.9 6.6 10.4 8.4 16.5 2 6.3 2.9 12.7 2.9 19.3 0 6.7-0.9 13.1-2.9 19.1-2.1 6.1-4.7 11.6-8.4 16.5-3.8 4.9-8.4 8.7-13.9 11.6-5.5 2.9-11.9 4.3-18.8 4.3-6.9 0-13.6-1.4-19.1-4.3-5.5-2.9-10.1-7-13.9-11.6-3.7-4.9-6.6-10.4-8.4-16.5-1.7-6.3-2.8-12.7-2.8-19.1 0-6.3 0.8-13 2.8-19.3 2.1-6.4 4.7-11.9 8.4-16.5 3.8-4.9 8.4-8.7 13.9-11.6 5.5-2.9 11.9-4.3 18.8-4.3zm0 13.6c-4.6 0-8.9 0.8-13 2.9-3.8 2-7.2 4.6-9.8 8q-3.9 5.3-6.1 12.2c-1.5 4.6-2 9.5-2 15 0 5.5 0.5 10.4 2 15.1q2.2 6.9 6.1 12.1c2.6 3.5 5.7 6.1 9.8 8.1 3.8 2 8.1 2.9 13 2.9 4.9 0 9-0.9 12.7-2.9 3.8-2 7-4.6 9.9-8.1 2.6-3.4 4.6-7.5 6-11.8 1.5-4.7 2.4-9.6 2.4-15.1 0-5.5-0.9-10.4-2.4-15q-2.1-7-6-12.2c-2.6-3.4-5.8-6-9.9-8.1-4-2-8.1-2.8-13-2.8z"/>
	<path class="s0" d="m2618.2 710.8l62.7 71.1v-69.7h12.7v102.1h-1.7l-62.8-71.1v69.7h-12.7v-102.1z"/>
	<path class="s0" d="m2800.9 711.9v13.6h-28v87.1h-13.3v-87.1h-27.8v-13.6z"/>
	<path class="s0" d="m2868.9 710.8l42.5 102.1h-14.2l-10.4-26.1h-38.1l-10.5 26.1h-13.8l42.8-102.1zm-16.2 65.9h30.1l-15.1-37.6zm35-93.7l-17.9 21.1h-9l16.2-21.1z"/>
	<path class="s0" d="m2988.3 711.9c4.7 0 8.7 0.9 12.2 2.3 3.5 1.5 6.1 3.5 8.4 6.1 2.3 2.6 3.7 5.5 4.6 8.7 0.9 3.2 1.4 6.6 1.4 10.1 0 5.2-0.8 9.6-2.8 12.7-2.1 3.2-4.4 5.8-7.6 7.5 3.5 2.1 6.7 5.3 9.3 9.3 2.6 4.1 4 9.3 4 15.6 0 6.4-0.5 7.6-1.7 11-1.2 3.5-2.9 6.7-5.2 9.3-2.3 2.6-5.2 4.9-8.4 6.3-3.5 1.5-7.2 2.4-11.6 2.4h-42.8v-101h40.2zm-26.9 43.1h28.4c4 0 7.2-1.1 9.2-3.7 2.1-2.7 3.2-5.8 3.2-9.9 0-4-0.3-4-0.8-6.1-0.6-2-1.5-3.4-2.9-4.9-1.2-1.4-2.9-2.6-4.7-3.4-1.7-0.9-4-1.2-6.6-1.2h-26v29.2zm0 44h27.7c2.6 0 4.6-0.6 6.7-1.5 2-0.9 3.4-2.3 4.9-3.7 1.4-1.8 2.3-3.5 2.9-5.5 0.6-2.1 0.8-4.4 0.8-6.7 0-2.3-0.2-4.6-1.1-6.9-0.6-2.1-1.7-4.1-2.9-5.5-1.2-1.5-2.9-2.9-4.6-3.8-1.8-0.9-3.8-1.4-6.1-1.4h-28.9v35z"/>
	<path class="s0" d="m3071.1 711.9v101h-13.3v-101z"/>
	<path class="s0" d="m3128.9 711.9v87.1h43.1v13.6h-56.4v-101h13.3z"/>
</svg>